<svg version="1.0" xmlns="http://www.w3.org/2000/svg"
 width="100.000000pt" height="100.000000pt" viewBox="0 0 100.000000 100.000000"
 preserveAspectRatio="xMidYMid meet">

<g transform="translate(0.000000,100.000000) scale(0.100000,-0.100000)"
fill="#00459d" stroke="none">
<path d="M140 520 l0 -460 327 0 c309 0 328 -1 347 -19 21 -20 21 -19 104 80
l83 99 -51 0 -50 0 0 90 c0 83 -1 90 -20 90 -19 0 -20 7 -20 153 l0 152 -138
138 -137 137 -223 0 -222 0 0 -460z m670 188 c0 -5 -52 -8 -115 -8 l-115 0 0
122 0 123 115 -115 c63 -63 115 -118 115 -122z m-338 -153 l33 -65 34 65 33
65 44 0 c51 0 52 7 -18 -108 -21 -34 -38 -66 -38 -70 0 -4 21 -41 46 -82 64
-104 64 -100 10 -100 l-46 0 -33 67 -34 67 -37 -67 c-38 -67 -38 -67 -82 -67
-24 0 -44 3 -44 6 0 3 25 44 55 90 l54 83 -49 85 c-28 46 -50 87 -50 90 0 3
20 6 45 6 l45 0 32 -65z m388 -285 l0 -90 31 0 30 0 -43 -50 -43 -50 -48 48
-48 47 30 3 31 3 0 90 0 89 30 0 30 0 0 -90z"/>
</g>
</svg>
