<svg width="39" height="37" viewBox="0 0 39 37" fill="none" xmlns="http://www.w3.org/2000/svg">
<path d="M38.4276 24.6524C38.0256 24.209 37.5097 23.9751 36.9364 23.9751C36.4672 23.9751 35.3166 24.1373 34.7573 25.6395C34.6163 26.0173 34.5757 26.2185 34.3856 26.1981C34.0635 26.1661 32.8101 24.827 32.4003 22.8605L31.3832 18.1072C32.1868 16.8054 33.0129 15.8006 33.8369 15.1192C34.2795 14.7578 34.7851 14.5664 35.3973 14.5332C36.9606 14.4267 37.5293 14.23 37.9133 13.9599C38.5472 13.5031 38.8955 12.8421 38.8955 12.0988C38.8955 11.4448 38.648 10.8617 38.1784 10.4126C37.7252 9.97865 37.1208 9.74959 36.4328 9.74959C35.4215 9.74959 34.286 10.2175 32.9604 11.1797C32.1778 11.7484 31.348 12.5753 30.4523 13.6838C30.1609 12.5967 29.9118 12.0902 29.7266 11.7874C29.1545 10.8437 28.2252 10.8437 27.9195 10.8437L27.5863 10.849L18.1433 11.0719L18.6747 8.81573C19.014 7.34344 19.4594 6.17847 19.9966 5.3532C20.2581 4.95163 20.658 4.47302 21.0776 4.47302C21.2362 4.47302 21.5497 4.49883 22.1356 4.62053C23.7657 4.97293 24.375 5.0135 24.6922 5.0135C25.392 5.0135 26.0075 4.77952 26.4734 4.33698C26.9553 3.87845 27.2098 3.27855 27.2098 2.60243C27.2098 2.07383 27.036 1.30921 26.2079 0.667511C25.6359 0.224552 24.8511 0 23.8759 0C22.4139 0 20.8645 0.467544 19.2697 1.38911C17.6872 2.30371 16.3858 3.56784 15.4023 5.14709C14.5398 6.53169 13.7924 8.47603 13.1261 11.0719H8.96448L8.04742 14.6906H12.2213L9.04971 27.4409C8.39285 30.081 7.91178 30.7305 7.78025 30.8669C7.4217 31.2374 6.68207 31.3152 6.12479 31.3152C5.43515 31.3152 4.70003 31.2656 3.93295 31.1673C3.40598 31.103 3.00482 31.0714 2.70733 31.0714C1.93779 31.0714 1.3047 31.2714 0.8265 31.6648C0.293393 32.1028 0 32.7359 0 33.4477C0 34.0037 0.180298 34.8036 1.0404 35.4535C1.628 35.896 2.4291 36.1206 3.42238 36.1206C5.90925 36.1206 8.2269 35.1326 10.3118 33.1846C12.3389 31.2898 13.8239 28.5079 14.7262 24.9093L17.2336 14.6918L25.7854 14.8369L26.7049 18.787L24.8311 21.5521C24.4934 22.0475 23.9906 22.6589 23.3321 23.3719C22.9879 23.7489 22.7593 23.9562 22.6269 24.064C22.0877 23.4051 21.4759 23.0707 20.8108 23.0707C20.1859 23.0707 19.6184 23.3268 19.171 23.8099C18.7464 24.2672 18.5223 24.8401 18.5223 25.4646C18.5223 26.2144 18.8431 26.882 19.45 27.3942C20.0061 27.8638 20.6932 28.1022 21.4911 28.1022C22.4802 28.1022 23.4924 27.7248 24.5004 26.9807C25.3416 26.3583 26.4251 25.1261 27.8088 23.2154C28.698 25.7723 29.9593 27.4163 30.56 28.1027C31.5078 29.1861 33.0387 29.8319 34.6548 29.8319C36.0267 29.8319 36.8036 29.2574 37.4888 28.7497L37.5494 28.705C38.7484 27.8183 39 26.8426 39 26.1784C38.9992 25.5904 38.8013 25.0634 38.4276 24.6524Z" fill="black"/>
</svg>
