<svg width="120" height="40" viewBox="0 0 120 40" fill="none" xmlns="http://www.w3.org/2000/svg">
<path d="M22.5152 32.9306C22.5152 30.7562 22.5378 28.5818 22.5039 26.4074C22.5039 25.9544 22.6511 25.7505 23.0248 25.5353C25.1652 24.3349 26.2864 22.5002 26.2751 20.0314C26.2638 17.5172 25.018 15.7165 22.8549 14.5501C20.2842 13.1571 16.9772 13.9838 15.1199 16.4187C13.3646 18.7403 13.5344 22.1492 15.505 24.233C15.958 24.7086 16.4336 25.1729 17.0225 25.4561C17.5095 25.6826 17.6907 26.011 17.6907 26.5772C17.6681 30.8015 17.6681 35.0257 17.6907 39.2613C17.6907 39.9294 17.5095 40.0653 16.8527 39.9521C8.0871 38.4798 1.42798 31.6282 0.193556 22.7947C-1.15412 13.1911 4.65562 3.94984 13.8855 0.994005C24.0327 -2.2676 34.9048 2.74938 38.7666 12.7041C41.4846 19.7143 40.5107 26.3734 35.958 32.3983C32.8323 36.5319 28.6194 38.9555 23.5458 39.8955C22.5152 40.088 22.5265 40.088 22.5265 39.0687C22.5265 37.0189 22.5265 34.9691 22.5265 32.9193H22.5152V32.9306Z" fill="#18A9DE"/>
<path d="M91.6442 22.5115C91.6442 20.575 91.6442 18.6271 91.6329 16.6905C91.6329 16.2714 91.7461 16.1242 92.1878 16.1242C92.8786 16.1242 93.5921 16.2375 94.2829 15.977C95.2342 15.7052 96.2195 15.456 96.7858 14.5047C97.8163 12.806 97.8277 11.0166 96.9443 9.30655C96.2082 7.8796 94.8152 7.31335 93.241 7.27937C91.2252 7.2454 89.198 7.27937 87.1822 7.26805C86.6839 7.26805 86.5366 7.43792 86.6612 7.89092L86.6272 8.71765V31.379L86.6612 32.2058L86.6838 32.6814L87.0689 32.8173C89.4018 32.8173 91.7348 32.8173 94.0678 32.8173L94.702 32.6588C95.0983 32.387 95.5627 32.6135 96.0043 32.4209C97.7031 31.6848 98.6204 30.3938 98.9375 28.6157C99.4245 25.7731 97.9636 23.4289 95.3022 22.7947L94.4981 22.6361C93.5468 22.5229 92.5955 22.7041 91.6442 22.5229V22.5115ZM79.0961 39.2726L79.0621 38.661L79.0961 38.2873C79.0961 26.6565 79.0961 15.0257 79.0961 3.39489C79.0961 2.78334 79.0734 2.18311 79.0621 1.57156L79.0848 1.53758L79.0508 1.50361V1.22048C79.0961 0.90338 79.13 0.67688 79.5831 0.67688C84.3169 0.710855 89.0508 0.642905 93.7846 0.74483C96.9556 0.801455 99.8775 1.65083 102.29 3.90451C106.118 7.4719 106.004 14.165 102.516 17.7324C102.12 18.1514 101.656 18.5138 101.191 18.9215L101.565 19.1254C103.739 20.1899 105.246 21.8773 105.993 24.1423C107.352 28.2193 106.752 32.0019 104 35.3768L103.887 35.49C103.388 35.909 102.913 36.3394 102.38 36.7244C100.093 38.4006 97.4426 39.0234 94.6906 39.3292C90.0247 39.3292 85.3588 39.3292 80.6929 39.3292C80.1606 39.3292 79.6284 39.3066 79.0961 39.2952V39.2499H79.0621L79.0961 39.2726Z" fill="#261d7a"/>
<path d="M50.2177 17.1321L50.0818 16.9962C49.5722 15.7504 48.904 14.5726 48.6889 13.2023C48.4057 11.3903 48.6549 9.64622 49.1192 7.90217C49.5609 6.98484 49.9459 6.05619 50.5688 5.25211C52.7998 2.31893 55.7783 0.665474 59.425 0.269098C64.6571 -0.285828 69.4137 0.83535 73.4001 4.47068V4.66321C72.4941 6.09016 71.7353 7.59639 71.0105 9.11395L70.8406 9.41972L70.4103 10.1332C70.1838 10.6768 70.0026 10.8467 69.4363 10.371C67.9188 9.07997 66.1747 8.16264 64.2381 7.67567C62.1996 7.15472 60.1838 7.06412 58.2812 8.16264C56.8882 8.95539 56.1407 10.4163 56.3899 11.8999C56.6164 13.2589 57.6017 14.0064 58.6662 14.6745C59.9573 15.4786 61.3729 16.0335 62.7659 16.6111C66.0728 17.9928 69.4023 19.3291 71.8712 22.1151L71.9731 22.217C72.6753 23.2363 73.3095 24.2895 73.6492 25.5126C75.1668 30.9373 72.3808 36.6904 67.1487 38.8195C62.4148 40.7447 57.6923 40.1219 53.1396 38.2985C51.2483 37.5398 49.5156 36.3167 48.032 34.8218L47.9414 33.9384C48.3265 33.4741 48.6436 32.9531 48.9946 32.4662L49.1419 32.2283C49.9459 31.1298 50.7613 30.0539 51.5654 28.9441L52.2223 28.8421C53.015 29.6236 53.9097 30.2691 54.8836 30.824C57.1487 32.1264 59.5382 32.9192 62.177 32.6813C63.4454 32.5681 64.5779 32.1377 65.4386 31.1298C66.5484 29.8274 66.6051 27.687 65.5745 26.5998C64.6685 25.6258 63.5813 24.9237 62.3921 24.3461C59.7874 23.0664 57.0354 22.0924 54.5099 20.6541C53.0943 19.8501 51.9165 18.7515 50.6594 17.7436L50.1951 17.1207L50.2177 17.1321Z" fill="#261d7a"/>
<path d="M115.993 0.67688H117.012H117.227H117.748C118.179 0.79013 118.609 0.778805 119.028 0.67688H119.277L119.47 0.72218L119.572 1.28843C119.572 13.8252 119.572 26.362 119.572 38.9102L119.481 39.3292C117.533 39.3292 115.597 39.2952 113.66 39.3066C113.094 39.3066 112.505 39.1933 111.95 39.3972L111.746 38.661C111.746 26.0449 111.746 13.4289 111.746 0.81278C112.346 0.76748 112.947 0.72218 113.558 0.67688H114.6C115.064 0.79013 115.529 0.79013 115.993 0.67688Z" fill="#261d7a"/>
</svg>
