<svg width="28" height="33" viewBox="0 0 28 33" fill="none" xmlns="http://www.w3.org/2000/svg">
<path fill-rule="evenodd" clip-rule="evenodd" d="M1.0548 3.48396H2.59116V28.3772C2.59116 29.4726 3.50609 30.3642 4.63037 30.3642H23.8317V31.8611C23.8317 32.4272 23.3579 32.8889 22.7769 32.8889H1.0548C0.473817 32.8889 0 32.4272 0 31.8611V4.51174C7.03201e-05 3.94571 0.473887 3.48396 1.0548 3.48396ZM4.63044 0C4.04945 0 3.57564 0.461678 3.57564 1.02778V28.3772C3.57564 28.9433 4.04945 29.4049 4.63044 29.4049H26.3526C26.9336 29.4049 27.4074 28.9433 27.4074 28.3772V5.74055H23.5552C22.4309 5.74055 21.5159 4.84906 21.5159 3.75351V0H4.63044ZM7.58051 6.49734H16.6518C16.9237 6.49734 17.144 6.2826 17.144 6.01771C17.144 5.75281 16.9237 5.53808 16.6518 5.53808H7.58051C7.30865 5.53808 7.08827 5.75281 7.08827 6.01771C7.08827 6.28253 7.30865 6.49734 7.58051 6.49734ZM7.58051 8.80984H12.749C13.0209 8.80984 13.2413 8.5951 13.2413 8.33021C13.2413 8.06532 13.0209 7.85058 12.749 7.85058H7.58051C7.30865 7.85058 7.08827 8.06532 7.08827 8.33021C7.08827 8.59503 7.30865 8.80984 7.58051 8.80984ZM22.5003 3.75358C22.5003 4.31968 22.9741 4.78136 23.5551 4.78136H27.3159C27.2648 4.67221 27.1922 4.57169 27.0984 4.48029L22.8093 0.30107C22.7155 0.209667 22.6124 0.138956 22.5004 0.0891426V3.75358H22.5003ZM7.93211 19.8226C7.73845 19.8226 7.58051 19.9765 7.58051 20.1652V24.4687C7.58051 24.6574 7.73845 24.8113 7.93211 24.8113H9.69729C9.89095 24.8113 10.0489 24.6574 10.0489 24.4687V20.1652C10.0489 19.9765 9.89095 19.8226 9.69729 19.8226H7.93211ZM12.3833 17.6523C12.1896 17.6523 12.0317 17.8062 12.0317 17.9949V24.4687C12.0317 24.6574 12.1896 24.8113 12.3833 24.8113H14.1485C14.3421 24.8113 14.5001 24.6574 14.5001 24.4687C14.5001 22.3108 14.5001 20.1529 14.5001 17.9949C14.5001 17.8062 14.3421 17.6523 14.1485 17.6523C13.5601 17.6523 12.9717 17.6523 12.3833 17.6523ZM16.8346 15.4819C16.6409 15.4819 16.483 15.6358 16.483 15.8245V24.4686C16.483 24.6573 16.6409 24.8112 16.8346 24.8112H18.5997C18.7934 24.8112 18.9513 24.6573 18.9513 24.4686C18.9513 21.5872 18.9513 18.7059 18.9513 15.8245C18.9513 15.6358 18.7934 15.4819 18.5997 15.4819C18.0113 15.4819 17.4229 15.4819 16.8346 15.4819ZM21.2858 13.3116C21.0922 13.3116 20.9342 13.4655 20.9342 13.6542V24.4686C20.9342 24.6573 21.0922 24.8112 21.2858 24.8112H23.051C23.2447 24.8112 23.4026 24.6573 23.4026 24.4686V13.6542C23.4026 13.4655 23.2447 13.3116 23.051 13.3116H21.2858ZM18.4707 9.66536L19.2325 9.47275C18.2221 10.9473 16.8093 12.266 15.0958 13.3271C13.0648 14.5849 10.6169 15.4783 7.91973 15.8399C7.65111 15.8751 7.46258 16.1158 7.49866 16.3776C7.53473 16.6394 7.78184 16.8231 8.05053 16.7879C10.8967 16.4063 13.4797 15.4635 15.6227 14.1365C17.3814 13.0474 18.8473 11.6978 19.9237 10.1846L19.9614 10.7429C19.9784 11.0067 20.2117 11.2072 20.4825 11.1906C20.7533 11.1741 20.9591 10.9468 20.942 10.6829L20.8057 8.67492C20.7814 8.31657 20.3985 8.19009 20.0499 8.27827L18.2247 8.73981C17.9624 8.806 17.8048 9.06692 17.8728 9.32249C17.9406 9.57807 18.2084 9.73162 18.4707 9.66536Z" fill="black"/>
</svg>
