<svg width="120" height="40" viewBox="0 0 120 40" fill="none" xmlns="http://www.w3.org/2000/svg">
<path d="M22.5152 32.9306C22.5152 30.7562 22.5378 28.5818 22.5039 26.4074C22.5039 25.9544 22.6511 25.7505 23.0248 25.5353C25.1652 24.3349 26.2864 22.5002 26.2751 20.0314C26.2638 17.5172 25.018 15.7165 22.8549 14.5501C20.2842 13.1571 16.9772 13.9838 15.1199 16.4187C13.3646 18.7403 13.5344 22.1492 15.505 24.233C15.958 24.7086 16.4336 25.1729 17.0225 25.4561C17.5095 25.6826 17.6907 26.011 17.6907 26.5772C17.6681 30.8015 17.6681 35.0257 17.6907 39.2613C17.6907 39.9294 17.5095 40.0653 16.8527 39.9521C8.0871 38.4798 1.42798 31.6282 0.193556 22.7947C-1.15412 13.1911 4.65562 3.94984 13.8855 0.994005C24.0327 -2.2676 34.9048 2.74938 38.7666 12.7041C41.4846 19.7143 40.5107 26.3734 35.958 32.3983C32.8323 36.5319 28.6194 38.9555 23.5458 39.8955C22.5152 40.088 22.5265 40.088 22.5265 39.0687C22.5265 37.0189 22.5265 34.9691 22.5265 32.9193H22.5152V32.9306Z" fill="#18A9DE"/>
</svg>
